# xmcd CD database file
#
# Track frame offsets:
#	150
#	16197
#	28931
#	44203
#	59863
#	74207
#	89344
#	106376
#	122418
#	137270
#	153435
#	171654
#	187701
#	200435
#	215707
#	231367
#	245711
#	260848
#	277880
#	293922
#	308774
#	324939
#
# Disc length: 4573 seconds
#
# Revision: 0
# Processed by: cddbd v1.4PL0 Copyright (c) Steve Scherf et al.
# Submitted via: CDex 1.50
#
DISCID=5711db16
DTITLE=Gibson/Miller Band - Where There's Smoke ~Zetroc Tunes Edition~
DYEAR=2003
DGENRE=Country
TTITLE0=High Rollin'
TTITLE1=Where There's Smoke
TTITLE2=Your Daddy Hates Me
TTITLE3=Small Price
TTITLE4=Texas Tattoo
TTITLE5=She's Gettin' A Rock
TTITLE6=Big Heart
TTITLE7=An Offer Her Heart Can't Refuse
TTITLE8=Thank Virginia
TTITLE9=Stone Cold Country
TTITLE10=Southern Man
TTITLE11=High Rollin'
TTITLE12=Where There's Smoke
TTITLE13=Your Daddy Hates Me
TTITLE14=Small Price
TTITLE15=Texas Tattoo
TTITLE16=She's Gettin' A Rock
TTITLE17=Big Heart
TTITLE18=An Offer Her Heart Can't Refuse
TTITLE19=Thank Virginia
TTITLE20=Stone Cold Country
TTITLE21=Southern Man
EXTD=YEAR: 2003
EXTT0=
EXTT1=
EXTT2=
EXTT3=
EXTT4=
EXTT5=
EXTT6=
EXTT7=
EXTT8=
EXTT9=
EXTT10=
EXTT11=
EXTT12=
EXTT13=
EXTT14=
EXTT15=
EXTT16=
EXTT17=
EXTT18=
EXTT19=
EXTT20=
EXTT21=
PLAYORDER=
